<?xml version="1.0" encoding="UTF-8"?>
<svg id="Layer_2" data-name="Layer 2" xmlns="http://www.w3.org/2000/svg" viewBox="0 0 283.81 283.81">
  <defs>
    <style>
      .cls-1 {
        fill: #60a46b;
      }

      .cls-1, .cls-2, .cls-3 {
        stroke-miterlimit: 10;
      }

      .cls-1, .cls-3 {
        stroke: #122847;
        stroke-width: 7px;
      }

      .cls-2 {
        fill: #64b1d1;
        stroke: #132c4a;
      }

      .cls-3, .cls-4 {
        fill: #122847;
      }
    </style>
  </defs>
  <g id="Layer_1-2" data-name="Layer 1">
    <circle class="cls-4" cx="141.91" cy="141.91" r="141.91"/>
    <path class="cls-2" d="M10.62,141.91c0,72.51,58.78,131.28,131.28,131.28s131.28-58.78,131.28-131.28S214.41,10.62,141.91,10.62,20.28,73.26,11.92,123.37c-1.41,8.47-1.3,15.03-1.3,18.53Z"/>
    <path class="cls-1" d="M89.55,16.14c7.67-3.43,24.48-10.95,28.75-5.52,3.66,4.66-2.74,17.76-9.63,25.68-7.21,8.29-10.99,6.89-15.03,13.48-4.91,8.01.56,19.05-4.1,26.25-3.27,5.06-7.53,1.83-14.34,7.81-5.73,5.03-9.14,14.35-9.06,20.74.12,9.07,5.48,10.53,9.06,21.12,4.78,14.14,2.09,31.08-2.92,32.42-5.25,1.4-14.07-14.07-17.95-20.89-7.25-12.72-5.37-16.08-11.23-22.18-11.86-12.34-21.61-7.43-25.32-15.09-8.25-17.02,32.86-55.87,39.67-62.26,4.27-4.01,15.29-14.06,32.1-21.59Z"/>
    <path class="cls-1" d="M21.04,184.96c2.55-7.92,11.67-10.86,23.74-14.76,12.28-3.96,24.7-4.46,28.97-4.63.49-.02,1.23-.05,2.23-.07,3.52-.06,6.14.11,7,.16,9.64.59,24.74-.76,36.39,4.42,3.35,1.49,11.87,5.28,15.09,13.5,1.73,4.42-.13,4.89-2.75,24.18-.44,3.2-2.42,17.65-6.04,24.82-4.05,8.01-6.26,6.93-10.73,15.43-6.07,11.52-3.54,17.82-8.5,20.33-4.97,2.51-12.97-1.04-17.12-6.12-3.93-4.8-2.74-9.14-4.56-20.92-2.01-13.03-3.01-19.55-6.92-24.19-.87-1.03-1.63-1.62-2.49-2.35-6.6-5.64-14.25-7.92-23.66-9.53-18.58-3.18-22.77-.11-27.28-4.72-3.93-4.02-4.95-10.64-3.37-15.55Z"/>
    <ellipse class="cls-3" cx="160.61" cy="98.48" rx="8.65" ry="13.84" transform="translate(-4.74 8.18) rotate(-2.87)"/>
    <ellipse class="cls-3" cx="220.58" cy="95.47" rx="8.65" ry="13.84" transform="translate(-4.51 11.18) rotate(-2.87)"/>
    <path class="cls-4" d="M198.72,135.73c-6.61.64-12.08.1-16.35-.75-9.41-1.88-15.04-5.63-18.2-2.93-1.69,1.45-1.92,4.17-1.47,5.97,1.14,4.58,7.43,6.42,12.62,7.87,5.5,1.54,14.45,3.18,26.3,1.65"/>
    <path class="cls-4" d="M198.72,135.73c7.33-.14,12.96-1.52,16.85-2.82,9.03-3.02,14.2-7.43,17.68-5.12,1.85,1.23,2.41,3.89,2.19,5.74-.57,4.67-6.57,7.22-11.54,9.34-7.13,3.04-14.22,3.83-21.22,4.61-1.44.16-2.64.27-3.47.34"/>
  </g>
</svg>