<?xml version="1.0" encoding="UTF-8"?>
<svg id="Layer_2" data-name="Layer 2" xmlns="http://www.w3.org/2000/svg" viewBox="0 0 283.81 283.81">
  <defs>
    <style>
      .cls-1 {
        fill: #60a46b;
        stroke-width: 5px;
      }

      .cls-1, .cls-2, .cls-3 {
        stroke: #122847;
        stroke-miterlimit: 10;
      }

      .cls-2 {
        fill: #64b1d1;
        stroke-width: .75px;
      }

      .cls-3 {
        stroke-width: 7px;
      }

      .cls-3, .cls-4 {
        fill: #122847;
      }
    </style>
  </defs>
  <g id="Layer_1-2" data-name="Layer 1">
    <circle class="cls-4" cx="141.91" cy="141.91" r="141.91"/>
    <path class="cls-2" d="M10.62,141.91c0,72.51,58.78,131.28,131.28,131.28s131.28-58.78,131.28-131.28S214.41,10.62,141.91,10.62,20.28,73.26,11.92,123.37c-1.41,8.47-1.3,15.03-1.3,18.53Z"/>
    <path class="cls-1" d="M89.07,21.69c7.67-3.43,24.48-10.95,28.75-5.52,3.66,4.66-2.74,17.76-9.63,25.68-7.21,8.29-10.99,6.89-15.03,13.48-4.91,8.01.56,19.05-4.1,26.25-3.27,5.06-7.53,1.83-14.34,7.81-5.73,5.03-9.14,14.35-9.06,20.74.12,9.07,5.48,10.53,9.06,21.12,4.78,14.14,2.09,31.08-2.92,32.42-5.25,1.4-14.07-14.07-17.95-20.89-7.25-12.72-5.37-16.08-11.23-22.18-11.86-12.34-21.61-7.43-25.32-15.09-8.25-17.02,32.86-55.87,39.67-62.26,4.27-4.01,15.29-14.06,32.1-21.59Z"/>
    <path class="cls-1" d="M19.98,187.54c2.37-7.47,11.35-10.08,23.24-13.53,12.1-3.51,24.4-3.73,28.63-3.8.48,0,1.22-.02,2.21-.02,3.49.02,6.09.23,6.94.29,9.57.76,24.52-.22,36.18,4.94,3.36,1.49,11.88,5.26,15.24,13.14,1.8,4.24-.02,4.64-2.23,22.91-.37,3.03-2.03,16.72-5.48,23.45-3.85,7.53-6.06,6.45-10.32,14.44-5.78,10.82-3.14,16.86-8.01,19.14-4.87,2.28-12.88-1.26-17.11-6.16-3.99-4.64-2.91-8.74-4.95-19.97-2.26-12.42-3.39-18.63-7.36-23.13-.88-1-1.65-1.57-2.51-2.28-6.66-5.49-14.29-7.81-23.66-9.54-18.49-3.4-22.58-.57-27.15-5.04-3.98-3.9-5.13-10.21-3.66-14.85Z"/>
    <ellipse class="cls-3" cx="138.19" cy="106.26" rx="8.65" ry="13.84" transform="translate(-9.95 14.38) rotate(-5.75)"/>
    <ellipse class="cls-3" cx="199.71" cy="99.62" rx="8.65" ry="13.84" transform="translate(-8.97 20.51) rotate(-5.75)"/>
    <path class="cls-4" d="M177.45,151.61c-14.82,2.98-25.5-11.23-33.28-5.47-2.41,1.78-3.74,4.84-3.6,7.43.35,6.82,10.91,10.87,14.3,12.18,8.65,3.32,16.36,2.54,21.12,2.03,9-.97,15.45-3.98,17.69-5.09,4.96-2.47,17.6-8.77,16.95-16.56-.28-3.32-2.98-7.01-6.58-8.17-8.31-2.66-13,10.93-26.59,13.65Z"/>
    <path class="cls-1" d="M194.99,43.84c11.99,5.68,11.41,8.59,20.67,12.25,11.87,4.7,25.77,5.29,26.92,1.58.97-3.14-7.17-9.31-14.88-15.16-3.27-2.48-6.41-4.58-12.8-8.65-8.72-5.55-13.09-8.3-14.18-8.9-7.68-4.19-21.77-11.91-27.31-7.81-3.99,2.95-3.13,11.7,1.43,17.16,4.07,4.88,8.47,3.99,20.15,9.52Z"/>
    <path class="cls-1" d="M247.64,159.46c-.52,4.41-.8,3.77-1.81,10.01-2.25,13.93-1.22,15.03-2.55,21.46-3.19,15.49-11.14,18.6-9.52,29.63.34,2.32,1.1,7.51,3.92,8.33,5.91,1.73,17.97-16.68,23.59-33.32,1.23-3.63,2.55-8.26,4.85-17.61,2.92-11.87,4.36-17.8,4.62-19.26,1.8-10.19,5.14-28.89-1.47-33.54-4.76-3.34-14.15.94-18.53,8.12-3.91,6.41-1.28,11-3.09,26.18Z"/>
  </g>
</svg>