<svg width="28" height="28" viewBox="0 0 28 28" fill="none" xmlns="http://www.w3.org/2000/svg">
<rect width="28" height="28" rx="8" fill="white"/>
<g clip-path="url(#clip0_974_22)">
<path d="M4.17 12.154C6.179 14.309 9.025 15.674 11.922 15.949C12.212 18.909 13.551 21.909 15.895 23.821C15.2803 23.939 14.6487 23.9987 14 24C8.477 24 4 19.523 4 14C4.00067 13.3687 4.05733 12.7533 4.17 12.154ZM23.868 12.37C23.9553 12.9007 23.9993 13.444 24 14C24.0004 15.8899 23.4653 17.7411 22.4566 19.3393C21.448 20.9375 20.0071 22.2172 18.301 23.03C15.818 21.71 14.275 18.873 13.931 15.97C17.255 15.767 21.065 14.499 23.868 12.37ZM18.005 4.834C20.4062 5.88779 22.2998 7.83921 23.281 10.271C20.838 12.406 17.115 13.755 13.888 13.97C13.9093 13.6987 13.942 13.43 13.986 13.164C14.52 9.965 15.676 6.758 18.006 4.834M14 4C14.616 4.00133 15.2167 4.05533 15.802 4.162C13.55 6.551 12.502 9.9 12.014 12.836C11.954 13.196 11.9117 13.562 11.887 13.934C9.13 13.61 6.48 12.109 4.887 9.876C5.68012 8.12397 6.96163 6.63781 8.57795 5.59562C10.1943 4.55343 12.0768 3.99943 14 4Z" fill="#03203F"/>
</g>
<defs>
<clipPath id="clip0_974_22">
<rect width="24" height="24" fill="white" transform="translate(2 2)"/>
</clipPath>
</defs>
</svg>
